<svg width="24" height="59" viewBox="0 0 24 59" fill="none" xmlns="http://www.w3.org/2000/svg">
<path d="M11.7657 0.566467C5.27801 0.566467 0 8.16242 0 17.4994V41.2003C0 50.5373 5.27801 58.1332 11.7657 58.1332C18.2535 58.1332 23.5315 50.5373 23.5315 41.2003V17.4994C23.5315 8.16242 18.2535 0.566467 11.7657 0.566467ZM21.1316 41.2003C21.1316 48.6325 16.9299 54.6794 11.7657 54.6794C6.60156 54.6794 2.3999 48.6325 2.3999 41.2003V17.4994C2.3999 10.0672 6.60156 4.02033 11.7657 4.02033C16.9299 4.02033 21.1316 10.0672 21.1316 17.4994V41.2003Z" fill="#666666"/>
<path d="M11.2 18.0506C10.5371 18.0506 10 18.8236 10 19.7775V27.7261C10 28.6796 10.5371 29.4531 11.2 29.4531C11.8625 29.4531 12.3999 28.6796 12.3999 27.7261V19.7775C12.3999 18.8236 11.8628 18.0506 11.2 18.0506Z" fill="#666666"/>
</svg>
