<svg width="22" height="22" viewBox="0 0 22 22" fill="none" xmlns="http://www.w3.org/2000/svg">
<g clip-path="url(#clip0_1_41)">
<path d="M21.0083 17.9494C20.9414 17.4253 20.6498 16.9735 20.2083 16.7097L15.0221 13.612C14.3869 13.2326 13.5811 13.343 13.0626 13.8808L12.0411 14.9406C11.7693 15.2226 11.3392 15.2476 11.041 14.9986C10.2357 14.3263 9.44277 13.5865 8.68432 12.7996C7.92587 12.0128 7.21273 11.1903 6.56469 10.3548C6.32465 10.0453 6.34867 9.5992 6.62058 9.31715L7.64205 8.25741C8.16046 7.71964 8.26707 6.88377 7.90126 6.22468L4.91526 0.844422C4.661 0.38631 4.2255 0.0838215 3.72035 0.0144875C3.21515 -0.0549877 2.71876 0.119807 2.35844 0.493608L0.819245 2.09045C-0.255029 3.20498 -0.272282 5.24364 0.770664 7.83099C1.77352 10.3188 3.64502 13.0575 6.04034 15.5426C8.43574 18.0276 11.0756 19.9691 13.4738 21.0095C14.7014 21.5421 15.8008 21.8082 16.729 21.8081C17.6865 21.8081 18.4617 21.5249 19.0072 20.959L20.5464 19.3622C20.9067 18.9884 21.0751 18.4734 21.0083 17.9494ZM14.6823 14.2243L19.8685 17.322C20.125 17.4752 20.2943 17.7376 20.3331 18.042C20.3657 18.2974 20.3017 18.549 20.1567 18.7517L13.2643 14.6708L13.5442 14.3805C13.8453 14.0681 14.3134 14.0039 14.6823 14.2243ZM3.63099 0.714939C3.92443 0.755211 4.17737 0.930901 4.32502 1.19698L7.31102 6.57724C7.52351 6.96003 7.46158 7.44556 7.16051 7.75784L6.9034 8.02458L2.94818 0.89793C3.10986 0.773722 3.30323 0.706272 3.50482 0.706272C3.54663 0.706272 3.58881 0.709146 3.63099 0.714939ZM18.5256 20.4594C17.6721 21.3448 15.9266 21.3077 13.7365 20.3576C11.4182 19.3519 8.85612 17.4644 6.52197 15.0429C4.18781 12.6214 2.36843 9.96339 1.39899 7.55841C0.483083 5.28636 0.447351 3.47548 1.30083 2.59002L2.44348 1.40456L6.40465 8.542L6.139 8.81759C5.62072 9.3553 5.57559 10.2065 6.03407 10.7978C6.69736 11.6529 7.42703 12.4945 8.20269 13.2992C8.97844 14.104 9.7897 14.8609 10.614 15.5491C11.1838 16.0247 12.0043 15.9779 12.5227 15.4402L12.7651 15.1887L19.667 19.2752L18.5256 20.4594Z" fill="white"/>
</g>
<defs>
<clipPath id="clip0_1_41">
<rect width="21.0219" height="21.8086" fill="white"/>
</clipPath>
</defs>
</svg>
