<svg width="209" height="99" viewBox="0 0 209 99" fill="none" xmlns="http://www.w3.org/2000/svg">
<path d="M7.22227 57.8707C7.22227 57.8707 7.22227 57.6066 7.22227 57.0785V55.2354V53.4001V52.6001H8.01443H9.85757H11.6929H12.4929C12.4929 52.6001 12.4929 52.8668 12.4929 53.4001V55.2354V57.0785V57.8707C12.4929 57.8707 12.2262 57.8707 11.6929 57.8707H9.85757H8.01443H7.22227ZM10.987 57.8707C10.987 57.8707 10.987 57.6066 10.987 57.0785V55.2354V53.4001V52.6001H11.7791H13.6223H15.4576H16.2576C16.2576 52.6001 16.2576 52.8668 16.2576 53.4001V55.2354V57.0785V57.8707C16.2576 57.8707 15.9909 57.8707 15.4576 57.8707H13.6223H11.7791H10.987ZM14.7517 57.8707C14.7517 57.8707 14.7517 57.6066 14.7517 57.0785V55.2354V53.4001V52.6001H15.5438H17.387H19.2223H20.0223C20.0223 52.6001 20.0223 52.8668 20.0223 53.4001V55.2354V57.0785V57.8707C20.0223 57.8707 19.7556 57.8707 19.2223 57.8707H17.387H15.5438H14.7517ZM3.45757 54.106C3.45757 54.106 3.45757 53.8419 3.45757 53.3138V51.4707V49.6354V48.8354H4.24972H6.09286H7.92815H8.72815C8.72815 48.8354 8.72815 49.102 8.72815 49.6354V51.4707V53.3138V54.106C8.72815 54.106 8.46149 54.106 7.92815 54.106H6.09286H4.24972H3.45757ZM18.5164 54.106C18.5164 54.106 18.5164 53.8419 18.5164 53.3138V51.4707V49.6354V48.8354H19.3085H21.1517H22.987H23.787C23.787 48.8354 23.787 49.102 23.787 49.6354V51.4707V53.3138V54.106C23.787 54.106 23.5203 54.106 22.987 54.106H21.1517H19.3085H18.5164ZM3.45757 50.3413C3.45757 50.3413 3.45757 50.0772 3.45757 49.5491V47.706V45.8707V45.0707H4.24972H6.09286H7.92815H8.72815C8.72815 45.0707 8.72815 45.3373 8.72815 45.8707V47.706V49.5491V50.3413C8.72815 50.3413 8.46149 50.3413 7.92815 50.3413H6.09286H4.24972H3.45757ZM18.5164 50.3413C18.5164 50.3413 18.5164 50.0772 18.5164 49.5491V47.706V45.8707V45.0707H19.3085H21.1517H22.987H23.787C23.787 45.0707 23.787 45.3373 23.787 45.8707V47.706V49.5491V50.3413C23.787 50.3413 23.5203 50.3413 22.987 50.3413H21.1517H19.3085H18.5164ZM3.45757 46.5766C3.45757 46.5766 3.45757 46.3125 3.45757 45.7844V43.9413V42.106V41.306H4.24972H6.09286H7.92815H8.72815C8.72815 41.306 8.72815 41.5726 8.72815 42.106V43.9413V45.7844V46.5766C8.72815 46.5766 8.46149 46.5766 7.92815 46.5766H6.09286H4.24972H3.45757ZM18.5164 46.5766C18.5164 46.5766 18.5164 46.3125 18.5164 45.7844V43.9413V42.106V41.306H19.3085H21.1517H22.987H23.787C23.787 41.306 23.787 41.5726 23.787 42.106V43.9413V45.7844V46.5766C23.787 46.5766 23.5203 46.5766 22.987 46.5766H21.1517H19.3085H18.5164ZM3.45757 42.8119C3.45757 42.8119 3.45757 42.5478 3.45757 42.0197V40.1766V38.3413V37.5413H4.24972H6.09286H7.92815H8.72815C8.72815 37.5413 8.72815 37.8079 8.72815 38.3413V40.1766V42.0197V42.8119C8.72815 42.8119 8.46149 42.8119 7.92815 42.8119H6.09286H4.24972H3.45757ZM18.5164 42.8119C18.5164 42.8119 18.5164 42.5478 18.5164 42.0197V40.1766V38.3413V37.5413H19.3085H21.1517H22.987H23.787C23.787 37.5413 23.787 37.8079 23.787 38.3413V40.1766V42.0197V42.8119C23.787 42.8119 23.5203 42.8119 22.987 42.8119H21.1517H19.3085H18.5164ZM3.45757 39.0471C3.45757 39.0471 3.45757 38.7831 3.45757 38.255V36.4119V34.5766V33.7766H4.24972H6.09286H7.92815H8.72815C8.72815 33.7766 8.72815 34.0432 8.72815 34.5766V36.4119V38.255V39.0471C8.72815 39.0471 8.46149 39.0471 7.92815 39.0471H6.09286H4.24972H3.45757ZM18.5164 39.0471C18.5164 39.0471 18.5164 38.7831 18.5164 38.255V36.4119V34.5766V33.7766H19.3085H21.1517H22.987H23.787C23.787 33.7766 23.787 34.0432 23.787 34.5766V36.4119V38.255V39.0471C23.787 39.0471 23.5203 39.0471 22.987 39.0471H21.1517H19.3085H18.5164ZM3.45757 35.2824C3.45757 35.2824 3.45757 35.0184 3.45757 34.4903V32.6471V30.8119V30.0119H4.24972H6.09286H7.92815H8.72815C8.72815 30.0119 8.72815 30.2785 8.72815 30.8119V32.6471V34.4903V35.2824C8.72815 35.2824 8.46149 35.2824 7.92815 35.2824H6.09286H4.24972H3.45757ZM18.5164 35.2824C18.5164 35.2824 18.5164 35.0184 18.5164 34.4903V32.6471V30.8119V30.0119H19.3085H21.1517H22.987H23.787C23.787 30.0119 23.787 30.2785 23.787 30.8119V32.6471V34.4903V35.2824C23.787 35.2824 23.5203 35.2824 22.987 35.2824H21.1517H19.3085H18.5164ZM3.45757 31.5177C3.45757 31.5177 3.45757 31.2537 3.45757 30.7256V28.8824V27.0471V26.2471H4.24972H6.09286H7.92815H8.72815C8.72815 26.2471 8.72815 26.5138 8.72815 27.0471V28.8824V30.7256V31.5177C8.72815 31.5177 8.46149 31.5177 7.92815 31.5177H6.09286H4.24972H3.45757ZM18.5164 31.5177C18.5164 31.5177 18.5164 31.2537 18.5164 30.7256V28.8824V27.0471V26.2471H19.3085H21.1517H22.987H23.787C23.787 26.2471 23.787 26.5138 23.787 27.0471V28.8824V30.7256V31.5177C23.787 31.5177 23.5203 31.5177 22.987 31.5177H21.1517H19.3085H18.5164ZM3.45757 27.753C3.45757 27.753 3.45757 27.489 3.45757 26.9609V25.1177V23.2824V22.4824H4.24972H6.09286H7.92815H8.72815C8.72815 22.4824 8.72815 22.7491 8.72815 23.2824V25.1177V26.9609V27.753C8.72815 27.753 8.46149 27.753 7.92815 27.753H6.09286H4.24972H3.45757ZM18.5164 27.753C18.5164 27.753 18.5164 27.489 18.5164 26.9609V25.1177V23.2824V22.4824H19.3085H21.1517H22.987H23.787C23.787 22.4824 23.787 22.7491 23.787 23.2824V25.1177V26.9609V27.753C23.787 27.753 23.5203 27.753 22.987 27.753H21.1517H19.3085H18.5164ZM3.45757 23.9883C3.45757 23.9883 3.45757 23.7243 3.45757 23.1962V21.353V19.5177V18.7177H4.24972H6.09286H7.92815H8.72815C8.72815 18.7177 8.72815 18.9844 8.72815 19.5177V21.353V23.1962V23.9883C8.72815 23.9883 8.46149 23.9883 7.92815 23.9883H6.09286H4.24972H3.45757ZM18.5164 23.9883C18.5164 23.9883 18.5164 23.7243 18.5164 23.1962V21.353V19.5177V18.7177H19.3085H21.1517H22.987H23.787C23.787 18.7177 23.787 18.9844 23.787 19.5177V21.353V23.1962V23.9883C23.787 23.9883 23.5203 23.9883 22.987 23.9883H21.1517H19.3085H18.5164ZM7.22227 20.2236C7.22227 20.2236 7.22227 19.9596 7.22227 19.4315V17.5883V15.753V14.953H8.01443H9.85757H11.6929H12.4929C12.4929 14.953 12.4929 15.2197 12.4929 15.753V17.5883V19.4315V20.2236C12.4929 20.2236 12.2262 20.2236 11.6929 20.2236H9.85757H8.01443H7.22227ZM10.987 20.2236C10.987 20.2236 10.987 19.9596 10.987 19.4315V17.5883V15.753V14.953H11.7791H13.6223H15.4576H16.2576C16.2576 14.953 16.2576 15.2197 16.2576 15.753V17.5883V19.4315V20.2236C16.2576 20.2236 15.9909 20.2236 15.4576 20.2236H13.6223H11.7791H10.987ZM14.7517 20.2236C14.7517 20.2236 14.7517 19.9596 14.7517 19.4315V17.5883V15.753V14.953H15.5438H17.387H19.2223H20.0223C20.0223 14.953 20.0223 15.2197 20.0223 15.753V17.5883V19.4315V20.2236C20.0223 20.2236 19.7556 20.2236 19.2223 20.2236H17.387H15.5438H14.7517ZM10.987 65.4001C10.987 65.4001 10.987 65.1334 10.987 64.6001V62.7648V60.9217V60.1295H11.7791H13.6223H15.4576H16.2576C16.2576 60.1295 16.2576 60.3936 16.2576 60.9217V62.7648V64.6001V65.4001C16.2576 65.4001 15.9909 65.4001 15.4576 65.4001H13.6223H11.7791H10.987ZM14.7517 65.4001C14.7517 65.4001 14.7517 65.1334 14.7517 64.6001V62.7648V60.9217V60.1295H15.5438H17.387H19.2223H20.0223C20.0223 60.1295 20.0223 60.3936 20.0223 60.9217V62.7648V64.6001V65.4001C20.0223 65.4001 19.7556 65.4001 19.2223 65.4001H17.387H15.5438H14.7517ZM18.5164 65.4001C18.5164 65.4001 18.5164 65.1334 18.5164 64.6001V62.7648V60.9217V60.1295H19.3085H21.1517H22.987H23.787C23.787 60.1295 23.787 60.3936 23.787 60.9217V62.7648V64.6001V65.4001C23.787 65.4001 23.5203 65.4001 22.987 65.4001H21.1517H19.3085H18.5164ZM22.2811 65.4001C22.2811 65.4001 22.2811 65.1334 22.2811 64.6001V62.7648V60.9217V60.1295H23.0733H24.9164H26.7517H27.5517C27.5517 60.1295 27.5517 60.3936 27.5517 60.9217V62.7648V64.6001V65.4001C27.5517 65.4001 27.285 65.4001 26.7517 65.4001H24.9164H23.0733H22.2811ZM29.8326 57.8707C29.8326 57.8707 29.8326 57.6066 29.8326 57.0785V55.2354V53.4001V52.6001H30.6247H32.4679H34.3032H35.1032C35.1032 52.6001 35.1032 52.8668 35.1032 53.4001V55.2354V57.0785V57.8707C35.1032 57.8707 34.8365 57.8707 34.3032 57.8707H32.4679H30.6247H29.8326ZM29.8326 54.106C29.8326 54.106 29.8326 53.8419 29.8326 53.3138V51.4707V49.6354V48.8354H30.6247H32.4679H34.3032H35.1032C35.1032 48.8354 35.1032 49.102 35.1032 49.6354V51.4707V53.3138V54.106C35.1032 54.106 34.8365 54.106 34.3032 54.106H32.4679H30.6247H29.8326ZM29.8326 50.3413C29.8326 50.3413 29.8326 50.0772 29.8326 49.5491V47.706V45.8707V45.0707H30.6247H32.4679H34.3032H35.1032C35.1032 45.0707 35.1032 45.3373 35.1032 45.8707V47.706V49.5491V50.3413C35.1032 50.3413 34.8365 50.3413 34.3032 50.3413H32.4679H30.6247H29.8326ZM29.8326 46.5766C29.8326 46.5766 29.8326 46.3125 29.8326 45.7844V43.9413V42.106V41.306H30.6247H32.4679H34.3032H35.1032C35.1032 41.306 35.1032 41.5726 35.1032 42.106V43.9413V45.7844V46.5766C35.1032 46.5766 34.8365 46.5766 34.3032 46.5766H32.4679H30.6247H29.8326ZM29.8326 42.8119C29.8326 42.8119 29.8326 42.5478 29.8326 42.0197V40.1766V38.3413V37.5413H30.6247H32.4679H34.3032H35.1032C35.1032 37.5413 35.1032 37.8079 35.1032 38.3413V40.1766V42.0197V42.8119C35.1032 42.8119 34.8365 42.8119 34.3032 42.8119H32.4679H30.6247H29.8326ZM29.8326 39.0471C29.8326 39.0471 29.8326 38.7831 29.8326 38.255V36.4119V34.5766V33.7766H30.6247H32.4679H34.3032H35.1032C35.1032 33.7766 35.1032 34.0432 35.1032 34.5766V36.4119V38.255V39.0471C35.1032 39.0471 34.8365 39.0471 34.3032 39.0471H32.4679H30.6247H29.8326ZM33.5973 39.0471C33.5973 39.0471 33.5973 38.7831 33.5973 38.255V36.4119V34.5766V33.7766H34.3894H36.2326H38.0679H38.8679C38.8679 33.7766 38.8679 34.0432 38.8679 34.5766V36.4119V38.255V39.0471C38.8679 39.0471 38.6012 39.0471 38.0679 39.0471H36.2326H34.3894H33.5973ZM37.362 39.0471C37.362 39.0471 37.362 38.7831 37.362 38.255V36.4119V34.5766V33.7766H38.1541H39.9973H41.8326H42.6326C42.6326 33.7766 42.6326 34.0432 42.6326 34.5766V36.4119V38.255V39.0471C42.6326 39.0471 42.3659 39.0471 41.8326 39.0471H39.9973H38.1541H37.362ZM29.8326 35.2824C29.8326 35.2824 29.8326 35.0184 29.8326 34.4903V32.6471V30.8119V30.0119H30.6247H32.4679H34.3032H35.1032C35.1032 30.0119 35.1032 30.2785 35.1032 30.8119V32.6471V34.4903V35.2824C35.1032 35.2824 34.8365 35.2824 34.3032 35.2824H32.4679H30.6247H29.8326ZM29.8326 31.5177C29.8326 31.5177 29.8326 31.2537 29.8326 30.7256V28.8824V27.0471V26.2471H30.6247H32.4679H34.3032H35.1032C35.1032 26.2471 35.1032 26.5138 35.1032 27.0471V28.8824V30.7256V31.5177C35.1032 31.5177 34.8365 31.5177 34.3032 31.5177H32.4679H30.6247H29.8326ZM29.8326 27.753C29.8326 27.753 29.8326 27.489 29.8326 26.9609V25.1177V23.2824V22.4824H30.6247H32.4679H34.3032H35.1032C35.1032 22.4824 35.1032 22.7491 35.1032 23.2824V25.1177V26.9609V27.753C35.1032 27.753 34.8365 27.753 34.3032 27.753H32.4679H30.6247H29.8326ZM29.8326 23.9883C29.8326 23.9883 29.8326 23.7243 29.8326 23.1962V21.353V19.5177V18.7177H30.6247H32.4679H34.3032H35.1032C35.1032 18.7177 35.1032 18.9844 35.1032 19.5177V21.353V23.1962V23.9883C35.1032 23.9883 34.8365 23.9883 34.3032 23.9883H32.4679H30.6247H29.8326ZM29.8326 20.2236C29.8326 20.2236 29.8326 19.9596 29.8326 19.4315V17.5883V15.753V14.953H30.6247H32.4679H34.3032H35.1032C35.1032 14.953 35.1032 15.2197 35.1032 15.753V17.5883V19.4315V20.2236C35.1032 20.2236 34.8365 20.2236 34.3032 20.2236H32.4679H30.6247H29.8326ZM33.5973 20.2236C33.5973 20.2236 33.5973 19.9596 33.5973 19.4315V17.5883V15.753V14.953H34.3894H36.2326H38.0679H38.8679C38.8679 14.953 38.8679 15.2197 38.8679 15.753V17.5883V19.4315V20.2236C38.8679 20.2236 38.6012 20.2236 38.0679 20.2236H36.2326H34.3894H33.5973ZM37.362 20.2236C37.362 20.2236 37.362 19.9596 37.362 19.4315V17.5883V15.753V14.953H38.1541H39.9973H41.8326H42.6326C42.6326 14.953 42.6326 15.2197 42.6326 15.753V17.5883V19.4315V20.2236C42.6326 20.2236 42.3659 20.2236 41.8326 20.2236H39.9973H38.1541H37.362ZM41.1267 20.2236C41.1267 20.2236 41.1267 19.9596 41.1267 19.4315V17.5883V15.753V14.953H41.9188H43.762H45.5973H46.3973C46.3973 14.953 46.3973 15.2197 46.3973 15.753V17.5883V19.4315V20.2236C46.3973 20.2236 46.1306 20.2236 45.5973 20.2236H43.762H41.9188H41.1267ZM52.4098 57.8707C52.4098 57.8707 52.4098 57.6066 52.4098 57.0785V55.2354V53.4001V52.6001H53.2019H55.0451H56.8804H57.6804C57.6804 52.6001 57.6804 52.8668 57.6804 53.4001V55.2354V57.0785V57.8707C57.6804 57.8707 57.4137 57.8707 56.8804 57.8707H55.0451H53.2019H52.4098ZM56.1745 57.8707C56.1745 57.8707 56.1745 57.6066 56.1745 57.0785V55.2354V53.4001V52.6001H56.9666H58.8098H60.6451H61.4451C61.4451 52.6001 61.4451 52.8668 61.4451 53.4001V55.2354V57.0785V57.8707C61.4451 57.8707 61.1784 57.8707 60.6451 57.8707H58.8098H56.9666H56.1745ZM59.9392 57.8707C59.9392 57.8707 59.9392 57.6066 59.9392 57.0785V55.2354V53.4001V52.6001H60.7313H62.5745H64.4098H65.2098C65.2098 52.6001 65.2098 52.8668 65.2098 53.4001V55.2354V57.0785V57.8707C65.2098 57.8707 64.9431 57.8707 64.4098 57.8707H62.5745H60.7313H59.9392ZM48.6451 54.106C48.6451 54.106 48.6451 53.8419 48.6451 53.3138V51.4707V49.6354V48.8354H49.4372H51.2804H53.1157H53.9157C53.9157 48.8354 53.9157 49.102 53.9157 49.6354V51.4707V53.3138V54.106C53.9157 54.106 53.649 54.106 53.1157 54.106H51.2804H49.4372H48.6451ZM63.7039 54.106C63.7039 54.106 63.7039 53.8419 63.7039 53.3138V51.4707V49.6354V48.8354H64.496H66.3392H68.1745H68.9745C68.9745 48.8354 68.9745 49.102 68.9745 49.6354V51.4707V53.3138V54.106C68.9745 54.106 68.7078 54.106 68.1745 54.106H66.3392H64.496H63.7039ZM48.6451 50.3413C48.6451 50.3413 48.6451 50.0772 48.6451 49.5491V47.706V45.8707V45.0707H49.4372H51.2804H53.1157H53.9157C53.9157 45.0707 53.9157 45.3373 53.9157 45.8707V47.706V49.5491V50.3413C53.9157 50.3413 53.649 50.3413 53.1157 50.3413H51.2804H49.4372H48.6451ZM63.7039 50.3413C63.7039 50.3413 63.7039 50.0772 63.7039 49.5491V47.706V45.8707V45.0707H64.496H66.3392H68.1745H68.9745C68.9745 45.0707 68.9745 45.3373 68.9745 45.8707V47.706V49.5491V50.3413C68.9745 50.3413 68.7078 50.3413 68.1745 50.3413H66.3392H64.496H63.7039ZM48.6451 46.5766C48.6451 46.5766 48.6451 46.3125 48.6451 45.7844V43.9413V42.106V41.306H49.4372H51.2804H53.1157H53.9157C53.9157 41.306 53.9157 41.5726 53.9157 42.106V43.9413V45.7844V46.5766C53.9157 46.5766 53.649 46.5766 53.1157 46.5766H51.2804H49.4372H48.6451ZM48.6451 42.8119C48.6451 42.8119 48.6451 42.5478 48.6451 42.0197V40.1766V38.3413V37.5413H49.4372H51.2804H53.1157H53.9157C53.9157 37.5413 53.9157 37.8079 53.9157 38.3413V40.1766V42.0197V42.8119C53.9157 42.8119 53.649 42.8119 53.1157 42.8119H51.2804H49.4372H48.6451ZM48.6451 39.0471C48.6451 39.0471 48.6451 38.7831 48.6451 38.255V36.4119V34.5766V33.7766H49.4372H51.2804H53.1157H53.9157C53.9157 33.7766 53.9157 34.0432 53.9157 34.5766V36.4119V38.255V39.0471C53.9157 39.0471 53.649 39.0471 53.1157 39.0471H51.2804H49.4372H48.6451ZM48.6451 35.2824C48.6451 35.2824 48.6451 35.0184 48.6451 34.4903V32.6471V30.8119V30.0119H49.4372H51.2804H53.1157H53.9157C53.9157 30.0119 53.9157 30.2785 53.9157 30.8119V32.6471V34.4903V35.2824C53.9157 35.2824 53.649 35.2824 53.1157 35.2824H51.2804H49.4372H48.6451ZM48.6451 31.5177C48.6451 31.5177 48.6451 31.2537 48.6451 30.7256V28.8824V27.0471V26.2471H49.4372H51.2804H53.1157H53.9157C53.9157 26.2471 53.9157 26.5138 53.9157 27.0471V28.8824V30.7256V31.5177C53.9157 31.5177 53.649 31.5177 53.1157 31.5177H51.2804H49.4372H48.6451ZM48.6451 27.753C48.6451 27.753 48.6451 27.489 48.6451 26.9609V25.1177V23.2824V22.4824H49.4372H51.2804H53.1157H53.9157C53.9157 22.4824 53.9157 22.7491 53.9157 23.2824V25.1177V26.9609V27.753C53.9157 27.753 53.649 27.753 53.1157 27.753H51.2804H49.4372H48.6451ZM63.7039 27.753C63.7039 27.753 63.7039 27.489 63.7039 26.9609V25.1177V23.2824V22.4824H64.496H66.3392H68.1745H68.9745C68.9745 22.4824 68.9745 22.7491 68.9745 23.2824V25.1177V26.9609V27.753C68.9745 27.753 68.7078 27.753 68.1745 27.753H66.3392H64.496H63.7039ZM48.6451 23.9883C48.6451 23.9883 48.6451 23.7243 48.6451 23.1962V21.353V19.5177V18.7177H49.4372H51.2804H53.1157H53.9157C53.9157 18.7177 53.9157 18.9844 53.9157 19.5177V21.353V23.1962V23.9883C53.9157 23.9883 53.649 23.9883 53.1157 23.9883H51.2804H49.4372H48.6451ZM63.7039 23.9883C63.7039 23.9883 63.7039 23.7243 63.7039 23.1962V21.353V19.5177V18.7177H64.496H66.3392H68.1745H68.9745C68.9745 18.7177 68.9745 18.9844 68.9745 19.5177V21.353V23.1962V23.9883C68.9745 23.9883 68.7078 23.9883 68.1745 23.9883H66.3392H64.496H63.7039ZM52.4098 20.2236C52.4098 20.2236 52.4098 19.9596 52.4098 19.4315V17.5883V15.753V14.953H53.2019H55.0451H56.8804H57.6804C57.6804 14.953 57.6804 15.2197 57.6804 15.753V17.5883V19.4315V20.2236C57.6804 20.2236 57.4137 20.2236 56.8804 20.2236H55.0451H53.2019H52.4098ZM56.1745 20.2236C56.1745 20.2236 56.1745 19.9596 56.1745 19.4315V17.5883V15.753V14.953H56.9666H58.8098H60.6451H61.4451C61.4451 14.953 61.4451 15.2197 61.4451 15.753V17.5883V19.4315V20.2236C61.4451 20.2236 61.1784 20.2236 60.6451 20.2236H58.8098H56.9666H56.1745ZM59.9392 20.2236C59.9392 20.2236 59.9392 19.9596 59.9392 19.4315V17.5883V15.753V14.953H60.7313H62.5745H64.4098H65.2098C65.2098 14.953 65.2098 15.2197 65.2098 15.753V17.5883V19.4315V20.2236C65.2098 20.2236 64.9431 20.2236 64.4098 20.2236H62.5745H60.7313H59.9392ZM71.2554 69.1648C71.2554 69.1648 71.2554 68.8981 71.2554 68.3648V66.5295V64.6864V63.8942H72.0475H73.8907H75.7259H76.5259C76.5259 63.8942 76.5259 64.1583 76.5259 64.6864V66.5295V68.3648V69.1648C76.5259 69.1648 76.2593 69.1648 75.7259 69.1648H73.8907H72.0475H71.2554ZM75.0201 69.1648C75.0201 69.1648 75.0201 68.8981 75.0201 68.3648V66.5295V64.6864V63.8942H75.8122H77.6554H79.4907H80.2907C80.2907 63.8942 80.2907 64.1583 80.2907 64.6864V66.5295V68.3648V69.1648C80.2907 69.1648 80.024 69.1648 79.4907 69.1648H77.6554H75.8122H75.0201ZM78.7848 69.1648C78.7848 69.1648 78.7848 68.8981 78.7848 68.3648V66.5295V64.6864V63.8942H79.5769H81.4201H83.2554H84.0554C84.0554 63.8942 84.0554 64.1583 84.0554 64.6864V66.5295V68.3648V69.1648C84.0554 69.1648 83.7887 69.1648 83.2554 69.1648H81.4201H79.5769H78.7848ZM82.5495 69.1648C82.5495 69.1648 82.5495 68.8981 82.5495 68.3648V66.5295V64.6864V63.8942H83.3416H85.1848H87.0201H87.8201C87.8201 63.8942 87.8201 64.1583 87.8201 64.6864V66.5295V68.3648V69.1648C87.8201 69.1648 87.5534 69.1648 87.0201 69.1648H85.1848H83.3416H82.5495ZM86.3142 69.1648C86.3142 69.1648 86.3142 68.8981 86.3142 68.3648V66.5295V64.6864V63.8942H87.1063H88.9495H90.7848H91.5848C91.5848 63.8942 91.5848 64.1583 91.5848 64.6864V66.5295V68.3648V69.1648C91.5848 69.1648 91.3181 69.1648 90.7848 69.1648H88.9495H87.1063H86.3142ZM90.0789 69.1648C90.0789 69.1648 90.0789 68.8981 90.0789 68.3648V66.5295V64.6864V63.8942H90.871H92.7142H94.5495H95.3495C95.3495 63.8942 95.3495 64.1583 95.3495 64.6864V66.5295V68.3648V69.1648C95.3495 69.1648 95.0828 69.1648 94.5495 69.1648H92.7142H90.871H90.0789ZM93.8436 69.1648C93.8436 69.1648 93.8436 68.8981 93.8436 68.3648V66.5295V64.6864V63.8942H94.6358H96.4789H98.3142H99.1142C99.1142 63.8942 99.1142 64.1583 99.1142 64.6864V66.5295V68.3648V69.1648C99.1142 69.1648 98.8475 69.1648 98.3142 69.1648H96.4789H94.6358H93.8436ZM97.6083 69.1648C97.6083 69.1648 97.6083 68.8981 97.6083 68.3648V66.5295V64.6864V63.8942H98.4005H100.244H102.079H102.879C102.879 63.8942 102.879 64.1583 102.879 64.6864V66.5295V68.3648V69.1648C102.879 69.1648 102.612 69.1648 102.079 69.1648H100.244H98.4005H97.6083ZM105.145 57.8707C105.145 57.8707 105.145 57.6066 105.145 57.0785V55.2354V53.4001V52.6001H105.937H107.78H109.616H110.416C110.416 52.6001 110.416 52.8668 110.416 53.4001V55.2354V57.0785V57.8707C110.416 57.8707 110.149 57.8707 109.616 57.8707H107.78H105.937H105.145ZM127.733 57.8707C127.733 57.8707 127.733 57.6066 127.733 57.0785V55.2354V53.4001V52.6001H128.525H130.369H132.204H133.004C133.004 52.6001 133.004 52.8668 133.004 53.4001V55.2354V57.0785V57.8707C133.004 57.8707 132.737 57.8707 132.204 57.8707H130.369H128.525H127.733ZM105.145 54.106C105.145 54.106 105.145 53.8419 105.145 53.3138V51.4707V49.6354V48.8354H105.937H107.78H109.616H110.416C110.416 48.8354 110.416 49.102 110.416 49.6354V51.4707V53.3138V54.106C110.416 54.106 110.149 54.106 109.616 54.106H107.78H105.937H105.145ZM127.733 54.106C127.733 54.106 127.733 53.8419 127.733 53.3138V51.4707V49.6354V48.8354H128.525H130.369H132.204H133.004C133.004 48.8354 133.004 49.102 133.004 49.6354V51.4707V53.3138V54.106C133.004 54.106 132.737 54.106 132.204 54.106H130.369H128.525H127.733ZM105.145 50.3413C105.145 50.3413 105.145 50.0772 105.145 49.5491V47.706V45.8707V45.0707H105.937H107.78H109.616H110.416C110.416 45.0707 110.416 45.3373 110.416 45.8707V47.706V49.5491V50.3413C110.416 50.3413 110.149 50.3413 109.616 50.3413H107.78H105.937H105.145ZM127.733 50.3413C127.733 50.3413 127.733 50.0772 127.733 49.5491V47.706V45.8707V45.0707H128.525H130.369H132.204H133.004C133.004 45.0707 133.004 45.3373 133.004 45.8707V47.706V49.5491V50.3413C133.004 50.3413 132.737 50.3413 132.204 50.3413H130.369H128.525H127.733ZM105.145 46.5766C105.145 46.5766 105.145 46.3125 105.145 45.7844V43.9413V42.106V41.306H105.937H107.78H109.616H110.416C110.416 41.306 110.416 41.5726 110.416 42.106V43.9413V45.7844V46.5766C110.416 46.5766 110.149 46.5766 109.616 46.5766H107.78H105.937H105.145ZM127.733 46.5766C127.733 46.5766 127.733 46.3125 127.733 45.7844V43.9413V42.106V41.306H128.525H130.369H132.204H133.004C133.004 41.306 133.004 41.5726 133.004 42.106V43.9413V45.7844V46.5766C133.004 46.5766 132.737 46.5766 132.204 46.5766H130.369H128.525H127.733ZM105.145 42.8119C105.145 42.8119 105.145 42.5478 105.145 42.0197V40.1766V38.3413V37.5413H105.937H107.78H109.616H110.416C110.416 37.5413 110.416 37.8079 110.416 38.3413V40.1766V42.0197V42.8119C110.416 42.8119 110.149 42.8119 109.616 42.8119H107.78H105.937H105.145ZM116.439 42.8119C116.439 42.8119 116.439 42.5478 116.439 42.0197V40.1766V38.3413V37.5413H117.231H119.074H120.91H121.71C121.71 37.5413 121.71 37.8079 121.71 38.3413V40.1766V42.0197V42.8119C121.71 42.8119 121.443 42.8119 120.91 42.8119H119.074H117.231H116.439ZM127.733 42.8119C127.733 42.8119 127.733 42.5478 127.733 42.0197V40.1766V38.3413V37.5413H128.525H130.369H132.204H133.004C133.004 37.5413 133.004 37.8079 133.004 38.3413V40.1766V42.0197V42.8119C133.004 42.8119 132.737 42.8119 132.204 42.8119H130.369H128.525H127.733ZM105.145 39.0471C105.145 39.0471 105.145 38.7831 105.145 38.255V36.4119V34.5766V33.7766H105.937H107.78H109.616H110.416C110.416 33.7766 110.416 34.0432 110.416 34.5766V36.4119V38.255V39.0471C110.416 39.0471 110.149 39.0471 109.616 39.0471H107.78H105.937H105.145ZM114.557 39.0471C114.557 39.0471 114.557 38.7831 114.557 38.255V36.4119V34.5766V33.7766H115.349H117.192H119.027H119.827C119.827 33.7766 119.827 34.0432 119.827 34.5766V36.4119V38.255V39.0471C119.827 39.0471 119.561 39.0471 119.027 39.0471H117.192H115.349H114.557ZM118.322 39.0471C118.322 39.0471 118.322 38.7831 118.322 38.255V36.4119V34.5766V33.7766H119.114H120.957H122.792H123.592C123.592 33.7766 123.592 34.0432 123.592 34.5766V36.4119V38.255V39.0471C123.592 39.0471 123.325 39.0471 122.792 39.0471H120.957H119.114H118.322ZM127.733 39.0471C127.733 39.0471 127.733 38.7831 127.733 38.255V36.4119V34.5766V33.7766H128.525H130.369H132.204H133.004C133.004 33.7766 133.004 34.0432 133.004 34.5766V36.4119V38.255V39.0471C133.004 39.0471 132.737 39.0471 132.204 39.0471H130.369H128.525H127.733ZM105.145 35.2824C105.145 35.2824 105.145 35.0184 105.145 34.4903V32.6471V30.8119V30.0119H105.937H107.78H109.616H110.416C110.416 30.0119 110.416 30.2785 110.416 30.8119V32.6471V34.4903V35.2824C110.416 35.2824 110.149 35.2824 109.616 35.2824H107.78H105.937H105.145ZM112.674 35.2824C112.674 35.2824 112.674 35.0184 112.674 34.4903V32.6471V30.8119V30.0119H113.467H115.31H117.145H117.945C117.945 30.0119 117.945 30.2785 117.945 30.8119V32.6471V34.4903V35.2824C117.945 35.2824 117.678 35.2824 117.145 35.2824H115.31H113.467H112.674ZM120.204 35.2824C120.204 35.2824 120.204 35.0184 120.204 34.4903V32.6471V30.8119V30.0119H120.996H122.839H124.674H125.474C125.474 30.0119 125.474 30.2785 125.474 30.8119V32.6471V34.4903V35.2824C125.474 35.2824 125.208 35.2824 124.674 35.2824H122.839H120.996H120.204ZM127.733 35.2824C127.733 35.2824 127.733 35.0184 127.733 34.4903V32.6471V30.8119V30.0119H128.525H130.369H132.204H133.004C133.004 30.0119 133.004 30.2785 133.004 30.8119V32.6471V34.4903V35.2824C133.004 35.2824 132.737 35.2824 132.204 35.2824H130.369H128.525H127.733ZM105.145 31.5177C105.145 31.5177 105.145 31.2537 105.145 30.7256V28.8824V27.0471V26.2471H105.937H107.78H109.616H110.416C110.416 26.2471 110.416 26.5138 110.416 27.0471V28.8824V30.7256V31.5177C110.416 31.5177 110.149 31.5177 109.616 31.5177H107.78H105.937H105.145ZM110.792 31.5177C110.792 31.5177 110.792 31.2537 110.792 30.7256V28.8824V27.0471V26.2471H111.584H113.427H115.263H116.063C116.063 26.2471 116.063 26.5138 116.063 27.0471V28.8824V30.7256V31.5177C116.063 31.5177 115.796 31.5177 115.263 31.5177H113.427H111.584H110.792ZM122.086 31.5177C122.086 31.5177 122.086 31.2537 122.086 30.7256V28.8824V27.0471V26.2471H122.878H124.722H126.557H127.357C127.357 26.2471 127.357 26.5138 127.357 27.0471V28.8824V30.7256V31.5177C127.357 31.5177 127.09 31.5177 126.557 31.5177H124.722H122.878H122.086ZM127.733 31.5177C127.733 31.5177 127.733 31.2537 127.733 30.7256V28.8824V27.0471V26.2471H128.525H130.369H132.204H133.004C133.004 26.2471 133.004 26.5138 133.004 27.0471V28.8824V30.7256V31.5177C133.004 31.5177 132.737 31.5177 132.204 31.5177H130.369H128.525H127.733ZM105.145 27.753C105.145 27.753 105.145 27.489 105.145 26.9609V25.1177V23.2824V22.4824H105.937H107.78H109.616H110.416C110.416 22.4824 110.416 22.7491 110.416 23.2824V25.1177V26.9609V27.753C110.416 27.753 110.149 27.753 109.616 27.753H107.78H105.937H105.145ZM108.91 27.753C108.91 27.753 108.91 27.489 108.91 26.9609V25.1177V23.2824V22.4824H109.702H111.545H113.38H114.18C114.18 22.4824 114.18 22.7491 114.18 23.2824V25.1177V26.9609V27.753C114.18 27.753 113.914 27.753 113.38 27.753H111.545H109.702H108.91ZM123.969 27.753C123.969 27.753 123.969 27.489 123.969 26.9609V25.1177V23.2824V22.4824H124.761H126.604H128.439H129.239C129.239 22.4824 129.239 22.7491 129.239 23.2824V25.1177V26.9609V27.753C129.239 27.753 128.973 27.753 128.439 27.753H126.604H124.761H123.969ZM127.733 27.753C127.733 27.753 127.733 27.489 127.733 26.9609V25.1177V23.2824V22.4824H128.525H130.369H132.204H133.004C133.004 22.4824 133.004 22.7491 133.004 23.2824V25.1177V26.9609V27.753C133.004 27.753 132.737 27.753 132.204 27.753H130.369H128.525H127.733ZM105.145 23.9883C105.145 23.9883 105.145 23.7243 105.145 23.1962V21.353V19.5177V18.7177H105.937H107.78H109.616H110.416C110.416 18.7177 110.416 18.9844 110.416 19.5177V21.353V23.1962V23.9883C110.416 23.9883 110.149 23.9883 109.616 23.9883H107.78H105.937H105.145ZM127.733 23.9883C127.733 23.9883 127.733 23.7243 127.733 23.1962V21.353V19.5177V18.7177H128.525H130.369H132.204H133.004C133.004 18.7177 133.004 18.9844 133.004 19.5177V21.353V23.1962V23.9883C133.004 23.9883 132.737 23.9883 132.204 23.9883H130.369H128.525H127.733ZM105.145 20.2236C105.145 20.2236 105.145 19.9596 105.145 19.4315V17.5883V15.753V14.953H105.937H107.78H109.616H110.416C110.416 14.953 110.416 15.2197 110.416 15.753V17.5883V19.4315V20.2236C110.416 20.2236 110.149 20.2236 109.616 20.2236H107.78H105.937H105.145ZM127.733 20.2236C127.733 20.2236 127.733 19.9596 127.733 19.4315V17.5883V15.753V14.953H128.525H130.369H132.204H133.004C133.004 14.953 133.004 15.2197 133.004 15.753V17.5883V19.4315V20.2236C133.004 20.2236 132.737 20.2236 132.204 20.2236H130.369H128.525H127.733ZM142.785 57.8707C142.785 57.8707 142.785 57.6066 142.785 57.0785V55.2354V53.4001V52.6001H143.577H145.42H147.255H148.055C148.055 52.6001 148.055 52.8668 148.055 53.4001V55.2354V57.0785V57.8707C148.055 57.8707 147.789 57.8707 147.255 57.8707H145.42H143.577H142.785ZM146.549 57.8707C146.549 57.8707 146.549 57.6066 146.549 57.0785V55.2354V53.4001V52.6001H147.342H149.185H151.02H151.82C151.82 52.6001 151.82 52.8668 151.82 53.4001V55.2354V57.0785V57.8707C151.82 57.8707 151.553 57.8707 151.02 57.8707H149.185H147.342H146.549ZM150.314 57.8707C150.314 57.8707 150.314 57.6066 150.314 57.0785V55.2354V53.4001V52.6001H151.106H152.949H154.785H155.585C155.585 52.6001 155.585 52.8668 155.585 53.4001V55.2354V57.0785V57.8707C155.585 57.8707 155.318 57.8707 154.785 57.8707H152.949H151.106H150.314ZM139.02 54.106C139.02 54.106 139.02 53.8419 139.02 53.3138V51.4707V49.6354V48.8354H139.812H141.655H143.491H144.291C144.291 48.8354 144.291 49.102 144.291 49.6354V51.4707V53.3138V54.106C144.291 54.106 144.024 54.106 143.491 54.106H141.655H139.812H139.02ZM154.079 54.106C154.079 54.106 154.079 53.8419 154.079 53.3138V51.4707V49.6354V48.8354H154.871H156.714H158.549H159.349C159.349 48.8354 159.349 49.102 159.349 49.6354V51.4707V53.3138V54.106C159.349 54.106 159.083 54.106 158.549 54.106H156.714H154.871H154.079ZM139.02 50.3413C139.02 50.3413 139.02 50.0772 139.02 49.5491V47.706V45.8707V45.0707H139.812H141.655H143.491H144.291C144.291 45.0707 144.291 45.3373 144.291 45.8707V47.706V49.5491V50.3413C144.291 50.3413 144.024 50.3413 143.491 50.3413H141.655H139.812H139.02ZM154.079 50.3413C154.079 50.3413 154.079 50.0772 154.079 49.5491V47.706V45.8707V45.0707H154.871H156.714H158.549H159.349C159.349 45.0707 159.349 45.3373 159.349 45.8707V47.706V49.5491V50.3413C159.349 50.3413 159.083 50.3413 158.549 50.3413H156.714H154.871H154.079ZM139.02 46.5766C139.02 46.5766 139.02 46.3125 139.02 45.7844V43.9413V42.106V41.306H139.812H141.655H143.491H144.291C144.291 41.306 144.291 41.5726 144.291 42.106V43.9413V45.7844V46.5766C144.291 46.5766 144.024 46.5766 143.491 46.5766H141.655H139.812H139.02ZM154.079 46.5766C154.079 46.5766 154.079 46.3125 154.079 45.7844V43.9413V42.106V41.306H154.871H156.714H158.549H159.349C159.349 41.306 159.349 41.5726 159.349 42.106V43.9413V45.7844V46.5766C159.349 46.5766 159.083 46.5766 158.549 46.5766H156.714H154.871H154.079ZM139.02 42.8119C139.02 42.8119 139.02 42.5478 139.02 42.0197V40.1766V38.3413V37.5413H139.812H141.655H143.491H144.291C144.291 37.5413 144.291 37.8079 144.291 38.3413V40.1766V42.0197V42.8119C144.291 42.8119 144.024 42.8119 143.491 42.8119H141.655H139.812H139.02ZM154.079 42.8119C154.079 42.8119 154.079 42.5478 154.079 42.0197V40.1766V38.3413V37.5413H154.871H156.714H158.549H159.349C159.349 37.5413 159.349 37.8079 159.349 38.3413V40.1766V42.0197V42.8119C159.349 42.8119 159.083 42.8119 158.549 42.8119H156.714H154.871H154.079ZM139.02 39.0471C139.02 39.0471 139.02 38.7831 139.02 38.255V36.4119V34.5766V33.7766H139.812H141.655H143.491H144.291C144.291 33.7766 144.291 34.0432 144.291 34.5766V36.4119V38.255V39.0471C144.291 39.0471 144.024 39.0471 143.491 39.0471H141.655H139.812H139.02ZM154.079 39.0471C154.079 39.0471 154.079 38.7831 154.079 38.255V36.4119V34.5766V33.7766H154.871H156.714H158.549H159.349C159.349 33.7766 159.349 34.0432 159.349 34.5766V36.4119V38.255V39.0471C159.349 39.0471 159.083 39.0471 158.549 39.0471H156.714H154.871H154.079ZM139.02 35.2824C139.02 35.2824 139.02 35.0184 139.02 34.4903V32.6471V30.8119V30.0119H139.812H141.655H143.491H144.291C144.291 30.0119 144.291 30.2785 144.291 30.8119V32.6471V34.4903V35.2824C144.291 35.2824 144.024 35.2824 143.491 35.2824H141.655H139.812H139.02ZM154.079 35.2824C154.079 35.2824 154.079 35.0184 154.079 34.4903V32.6471V30.8119V30.0119H154.871H156.714H158.549H159.349C159.349 30.0119 159.349 30.2785 159.349 30.8119V32.6471V34.4903V35.2824C159.349 35.2824 159.083 35.2824 158.549 35.2824H156.714H154.871H154.079ZM142.785 31.5177C142.785 31.5177 142.785 31.2537 142.785 30.7256V28.8824V27.0471V26.2471H143.577H145.42H147.255H148.055C148.055 26.2471 148.055 26.5138 148.055 27.0471V28.8824V30.7256V31.5177C148.055 31.5177 147.789 31.5177 147.255 31.5177H145.42H143.577H142.785ZM146.549 31.5177C146.549 31.5177 146.549 31.2537 146.549 30.7256V28.8824V27.0471V26.2471H147.342H149.185H151.02H151.82C151.82 26.2471 151.82 26.5138 151.82 27.0471V28.8824V30.7256V31.5177C151.82 31.5177 151.553 31.5177 151.02 31.5177H149.185H147.342H146.549ZM150.314 31.5177C150.314 31.5177 150.314 31.2537 150.314 30.7256V28.8824V27.0471V26.2471H151.106H152.949H154.785H155.585C155.585 26.2471 155.585 26.5138 155.585 27.0471V28.8824V30.7256V31.5177C155.585 31.5177 155.318 31.5177 154.785 31.5177H152.949H151.106H150.314ZM171.042 57.8707C171.042 57.8707 171.042 57.6066 171.042 57.0785V55.2354V53.4001V52.6001H171.834H173.677H175.513H176.313C176.313 52.6001 176.313 52.8668 176.313 53.4001V55.2354V57.0785V57.8707C176.313 57.8707 176.046 57.8707 175.513 57.8707H173.677H171.834H171.042ZM174.807 57.8707C174.807 57.8707 174.807 57.6066 174.807 57.0785V55.2354V53.4001V52.6001H175.599H177.442H179.277H180.077C180.077 52.6001 180.077 52.8668 180.077 53.4001V55.2354V57.0785V57.8707C180.077 57.8707 179.811 57.8707 179.277 57.8707H177.442H175.599H174.807ZM167.277 54.106C167.277 54.106 167.277 53.8419 167.277 53.3138V51.4707V49.6354V48.8354H168.07H169.913H171.748H172.548C172.548 48.8354 172.548 49.102 172.548 49.6354V51.4707V53.3138V54.106C172.548 54.106 172.281 54.106 171.748 54.106H169.913H168.07H167.277ZM167.277 50.3413C167.277 50.3413 167.277 50.0772 167.277 49.5491V47.706V45.8707V45.0707H168.07H169.913H171.748H172.548C172.548 45.0707 172.548 45.3373 172.548 45.8707V47.706V49.5491V50.3413C172.548 50.3413 172.281 50.3413 171.748 50.3413H169.913H168.07H167.277ZM167.277 46.5766C167.277 46.5766 167.277 46.3125 167.277 45.7844V43.9413V42.106V41.306H168.07H169.913H171.748H172.548C172.548 41.306 172.548 41.5726 172.548 42.106V43.9413V45.7844V46.5766C172.548 46.5766 172.281 46.5766 171.748 46.5766H169.913H168.07H167.277ZM167.277 42.8119C167.277 42.8119 167.277 42.5478 167.277 42.0197V40.1766V38.3413V37.5413H168.07H169.913H171.748H172.548C172.548 37.5413 172.548 37.8079 172.548 38.3413V40.1766V42.0197V42.8119C172.548 42.8119 172.281 42.8119 171.748 42.8119H169.913H168.07H167.277ZM167.277 39.0471C167.277 39.0471 167.277 38.7831 167.277 38.255V36.4119V34.5766V33.7766H168.07H169.913H171.748H172.548C172.548 33.7766 172.548 34.0432 172.548 34.5766V36.4119V38.255V39.0471C172.548 39.0471 172.281 39.0471 171.748 39.0471H169.913H168.07H167.277ZM167.277 35.2824C167.277 35.2824 167.277 35.0184 167.277 34.4903V32.6471V30.8119V30.0119H168.07H169.913H171.748H172.548C172.548 30.0119 172.548 30.2785 172.548 30.8119V32.6471V34.4903V35.2824C172.548 35.2824 172.281 35.2824 171.748 35.2824H169.913H168.07H167.277ZM163.513 31.5177C163.513 31.5177 163.513 31.2537 163.513 30.7256V28.8824V27.0471V26.2471H164.305H166.148H167.983H168.783C168.783 26.2471 168.783 26.5138 168.783 27.0471V28.8824V30.7256V31.5177C168.783 31.5177 168.517 31.5177 167.983 31.5177H166.148H164.305H163.513ZM167.277 31.5177C167.277 31.5177 167.277 31.2537 167.277 30.7256V28.8824V27.0471V26.2471H168.07H169.913H171.748H172.548C172.548 26.2471 172.548 26.5138 172.548 27.0471V28.8824V30.7256V31.5177C172.548 31.5177 172.281 31.5177 171.748 31.5177H169.913H168.07H167.277ZM171.042 31.5177C171.042 31.5177 171.042 31.2537 171.042 30.7256V28.8824V27.0471V26.2471H171.834H173.677H175.513H176.313C176.313 26.2471 176.313 26.5138 176.313 27.0471V28.8824V30.7256V31.5177C176.313 31.5177 176.046 31.5177 175.513 31.5177H173.677H171.834H171.042ZM174.807 31.5177C174.807 31.5177 174.807 31.2537 174.807 30.7256V28.8824V27.0471V26.2471H175.599H177.442H179.277H180.077C180.077 26.2471 180.077 26.5138 180.077 27.0471V28.8824V30.7256V31.5177C180.077 31.5177 179.811 31.5177 179.277 31.5177H177.442H175.599H174.807ZM167.277 27.753C167.277 27.753 167.277 27.489 167.277 26.9609V25.1177V23.2824V22.4824H168.07H169.913H171.748H172.548C172.548 22.4824 172.548 22.7491 172.548 23.2824V25.1177V26.9609V27.753C172.548 27.753 172.281 27.753 171.748 27.753H169.913H168.07H167.277ZM167.277 23.9883C167.277 23.9883 167.277 23.7243 167.277 23.1962V21.353V19.5177V18.7177H168.07H169.913H171.748H172.548C172.548 18.7177 172.548 18.9844 172.548 19.5177V21.353V23.1962V23.9883C172.548 23.9883 172.281 23.9883 171.748 23.9883H169.913H168.07H167.277ZM187.972 57.8707C187.972 57.8707 187.972 57.6066 187.972 57.0785V55.2354V53.4001V52.6001H188.764H190.608H192.443H193.243C193.243 52.6001 193.243 52.8668 193.243 53.4001V55.2354V57.0785V57.8707C193.243 57.8707 192.976 57.8707 192.443 57.8707H190.608H188.764H187.972ZM191.737 57.8707C191.737 57.8707 191.737 57.6066 191.737 57.0785V55.2354V53.4001V52.6001H192.529H194.372H196.208H197.008C197.008 52.6001 197.008 52.8668 197.008 53.4001V55.2354V57.0785V57.8707C197.008 57.8707 196.741 57.8707 196.208 57.8707H194.372H192.529H191.737ZM195.502 57.8707C195.502 57.8707 195.502 57.6066 195.502 57.0785V55.2354V53.4001V52.6001H196.294H198.137H199.972H200.772C200.772 52.6001 200.772 52.8668 200.772 53.4001V55.2354V57.0785V57.8707C200.772 57.8707 200.506 57.8707 199.972 57.8707H198.137H196.294H195.502ZM184.208 54.106C184.208 54.106 184.208 53.8419 184.208 53.3138V51.4707V49.6354V48.8354H185H186.843H188.678H189.478C189.478 48.8354 189.478 49.102 189.478 49.6354V51.4707V53.3138V54.106C189.478 54.106 189.211 54.106 188.678 54.106H186.843H185H184.208ZM199.266 54.106C199.266 54.106 199.266 53.8419 199.266 53.3138V51.4707V49.6354V48.8354H200.059H201.902H203.737H204.537C204.537 48.8354 204.537 49.102 204.537 49.6354V51.4707V53.3138V54.106C204.537 54.106 204.27 54.106 203.737 54.106H201.902H200.059H199.266ZM184.208 50.3413C184.208 50.3413 184.208 50.0772 184.208 49.5491V47.706V45.8707V45.0707H185H186.843H188.678H189.478C189.478 45.0707 189.478 45.3373 189.478 45.8707V47.706V49.5491V50.3413C189.478 50.3413 189.211 50.3413 188.678 50.3413H186.843H185H184.208ZM199.266 50.3413C199.266 50.3413 199.266 50.0772 199.266 49.5491V47.706V45.8707V45.0707H200.059H201.902H203.737H204.537C204.537 45.0707 204.537 45.3373 204.537 45.8707V47.706V49.5491V50.3413C204.537 50.3413 204.27 50.3413 203.737 50.3413H201.902H200.059H199.266ZM184.208 46.5766C184.208 46.5766 184.208 46.3125 184.208 45.7844V43.9413V42.106V41.306H185H186.843H188.678H189.478C189.478 41.306 189.478 41.5726 189.478 42.106V43.9413V45.7844V46.5766C189.478 46.5766 189.211 46.5766 188.678 46.5766H186.843H185H184.208ZM199.266 46.5766C199.266 46.5766 199.266 46.3125 199.266 45.7844V43.9413V42.106V41.306H200.059H201.902H203.737H204.537C204.537 41.306 204.537 41.5726 204.537 42.106V43.9413V45.7844V46.5766C204.537 46.5766 204.27 46.5766 203.737 46.5766H201.902H200.059H199.266ZM184.208 42.8119C184.208 42.8119 184.208 42.5478 184.208 42.0197V40.1766V38.3413V37.5413H185H186.843H188.678H189.478C189.478 37.5413 189.478 37.8079 189.478 38.3413V40.1766V42.0197V42.8119C189.478 42.8119 189.211 42.8119 188.678 42.8119H186.843H185H184.208ZM199.266 42.8119C199.266 42.8119 199.266 42.5478 199.266 42.0197V40.1766V38.3413V37.5413H200.059H201.902H203.737H204.537C204.537 37.5413 204.537 37.8079 204.537 38.3413V40.1766V42.0197V42.8119C204.537 42.8119 204.27 42.8119 203.737 42.8119H201.902H200.059H199.266ZM184.208 39.0471C184.208 39.0471 184.208 38.7831 184.208 38.255V36.4119V34.5766V33.7766H185H186.843H188.678H189.478C189.478 33.7766 189.478 34.0432 189.478 34.5766V36.4119V38.255V39.0471C189.478 39.0471 189.211 39.0471 188.678 39.0471H186.843H185H184.208ZM199.266 39.0471C199.266 39.0471 199.266 38.7831 199.266 38.255V36.4119V34.5766V33.7766H200.059H201.902H203.737H204.537C204.537 33.7766 204.537 34.0432 204.537 34.5766V36.4119V38.255V39.0471C204.537 39.0471 204.27 39.0471 203.737 39.0471H201.902H200.059H199.266ZM184.208 35.2824C184.208 35.2824 184.208 35.0184 184.208 34.4903V32.6471V30.8119V30.0119H185H186.843H188.678H189.478C189.478 30.0119 189.478 30.2785 189.478 30.8119V32.6471V34.4903V35.2824C189.478 35.2824 189.211 35.2824 188.678 35.2824H186.843H185H184.208ZM199.266 35.2824C199.266 35.2824 199.266 35.0184 199.266 34.4903V32.6471V30.8119V30.0119H200.059H201.902H203.737H204.537C204.537 30.0119 204.537 30.2785 204.537 30.8119V32.6471V34.4903V35.2824C204.537 35.2824 204.27 35.2824 203.737 35.2824H201.902H200.059H199.266ZM187.972 31.5177C187.972 31.5177 187.972 31.2537 187.972 30.7256V28.8824V27.0471V26.2471H188.764H190.608H192.443H193.243C193.243 26.2471 193.243 26.5138 193.243 27.0471V28.8824V30.7256V31.5177C193.243 31.5177 192.976 31.5177 192.443 31.5177H190.608H188.764H187.972ZM191.737 31.5177C191.737 31.5177 191.737 31.2537 191.737 30.7256V28.8824V27.0471V26.2471H192.529H194.372H196.208H197.008C197.008 26.2471 197.008 26.5138 197.008 27.0471V28.8824V30.7256V31.5177C197.008 31.5177 196.741 31.5177 196.208 31.5177H194.372H192.529H191.737ZM195.502 31.5177C195.502 31.5177 195.502 31.2537 195.502 30.7256V28.8824V27.0471V26.2471H196.294H198.137H199.972H200.772C200.772 26.2471 200.772 26.5138 200.772 27.0471V28.8824V30.7256V31.5177C200.772 31.5177 200.506 31.5177 199.972 31.5177H198.137H196.294H195.502Z" fill="white"/>
<path d="M23.8152 93.89V82.33L18.6752 91.31H17.7952L12.6352 82.33V93.89H11.2352V79.69H12.6752L18.2152 89.41L23.7952 79.69H25.2152V93.89H23.8152ZM35.178 94.09C34.4313 94.09 33.738 93.95 33.098 93.67C32.4713 93.3766 31.9247 92.9833 31.458 92.49C31.0047 91.9833 30.6513 91.41 30.398 90.77C30.1447 90.1166 30.018 89.43 30.018 88.71C30.018 87.9633 30.1447 87.27 30.398 86.63C30.6513 85.9766 31.0113 85.4033 31.478 84.91C31.9447 84.4033 32.4913 84.01 33.118 83.73C33.758 83.4366 34.4513 83.29 35.198 83.29C35.9447 83.29 36.6313 83.4366 37.258 83.73C37.8847 84.01 38.4313 84.4033 38.898 84.91C39.3647 85.4033 39.7247 85.9766 39.978 86.63C40.2313 87.27 40.358 87.9633 40.358 88.71C40.358 89.43 40.2313 90.1166 39.978 90.77C39.7247 91.41 39.3647 91.9833 38.898 92.49C38.4447 92.9833 37.898 93.3766 37.258 93.67C36.6313 93.95 35.938 94.09 35.178 94.09ZM31.398 88.73C31.398 89.5033 31.5647 90.21 31.898 90.85C32.2447 91.4766 32.7047 91.9766 33.278 92.35C33.8513 92.71 34.4847 92.89 35.178 92.89C35.8713 92.89 36.5047 92.7033 37.078 92.33C37.6513 91.9566 38.1113 91.45 38.458 90.81C38.8047 90.1566 38.978 89.45 38.978 88.69C38.978 87.9166 38.8047 87.21 38.458 86.57C38.1113 85.93 37.6513 85.4233 37.078 85.05C36.5047 84.6766 35.8713 84.49 35.178 84.49C34.4847 84.49 33.8513 84.6833 33.278 85.07C32.718 85.4566 32.2647 85.97 31.918 86.61C31.5713 87.2366 31.398 87.9433 31.398 88.73ZM47.6325 93.89V84.69H43.9125V83.47H52.7125V84.69H48.9925V93.89H47.6325ZM61.4038 94.09C60.6571 94.09 59.9638 93.95 59.3238 93.67C58.6971 93.3766 58.1505 92.9833 57.6838 92.49C57.2305 91.9833 56.8771 91.41 56.6238 90.77C56.3705 90.1166 56.2438 89.43 56.2438 88.71C56.2438 87.9633 56.3705 87.27 56.6238 86.63C56.8771 85.9766 57.2371 85.4033 57.7038 84.91C58.1705 84.4033 58.7171 84.01 59.3438 83.73C59.9838 83.4366 60.6771 83.29 61.4238 83.29C62.1705 83.29 62.8571 83.4366 63.4838 83.73C64.1105 84.01 64.6571 84.4033 65.1238 84.91C65.5905 85.4033 65.9505 85.9766 66.2038 86.63C66.4571 87.27 66.5838 87.9633 66.5838 88.71C66.5838 89.43 66.4571 90.1166 66.2038 90.77C65.9505 91.41 65.5905 91.9833 65.1238 92.49C64.6705 92.9833 64.1238 93.3766 63.4838 93.67C62.8571 93.95 62.1638 94.09 61.4038 94.09ZM57.6238 88.73C57.6238 89.5033 57.7905 90.21 58.1238 90.85C58.4705 91.4766 58.9305 91.9766 59.5038 92.35C60.0771 92.71 60.7105 92.89 61.4038 92.89C62.0971 92.89 62.7305 92.7033 63.3038 92.33C63.8771 91.9566 64.3371 91.45 64.6838 90.81C65.0305 90.1566 65.2038 89.45 65.2038 88.69C65.2038 87.9166 65.0305 87.21 64.6838 86.57C64.3371 85.93 63.8771 85.4233 63.3038 85.05C62.7305 84.6766 62.0971 84.49 61.4038 84.49C60.7105 84.49 60.0771 84.6833 59.5038 85.07C58.9438 85.4566 58.4905 85.97 58.1438 86.61C57.7971 87.2366 57.6238 87.9433 57.6238 88.73ZM78.096 86.69C78.096 85.8233 78.2426 84.9766 78.536 84.15C78.8426 83.31 79.2826 82.55 79.856 81.87C80.4293 81.1766 81.136 80.63 81.976 80.23C82.816 79.8166 83.7693 79.61 84.836 79.61C86.1026 79.61 87.1826 79.9033 88.076 80.49C88.9826 81.0633 89.6493 81.8033 90.076 82.71L88.976 83.39C88.6693 82.7633 88.2826 82.27 87.816 81.91C87.3493 81.5366 86.8493 81.27 86.316 81.11C85.796 80.95 85.276 80.87 84.756 80.87C83.9026 80.87 83.1493 81.0433 82.496 81.39C81.8426 81.7233 81.2893 82.1766 80.836 82.75C80.396 83.31 80.0626 83.9433 79.836 84.65C79.6093 85.3433 79.496 86.05 79.496 86.77C79.496 87.5566 79.6293 88.31 79.896 89.03C80.1626 89.75 80.536 90.39 81.016 90.95C81.496 91.4966 82.056 91.9366 82.696 92.27C83.3493 92.59 84.056 92.75 84.816 92.75C85.3493 92.75 85.896 92.6566 86.456 92.47C87.016 92.2833 87.536 91.9966 88.016 91.61C88.5093 91.2233 88.9026 90.7233 89.196 90.11L90.356 90.71C90.0626 91.4166 89.6093 92.0166 88.996 92.51C88.3826 93.0033 87.696 93.3766 86.936 93.63C86.1893 93.8833 85.456 94.01 84.736 94.01C83.7626 94.01 82.8693 93.8033 82.056 93.39C81.2426 92.9633 80.536 92.4033 79.936 91.71C79.3493 91.0033 78.896 90.2166 78.576 89.35C78.256 88.47 78.096 87.5833 78.096 86.69ZM105.188 80.93H100.128V93.89H98.7279V80.93H93.6679V79.69H105.188V80.93ZM114.947 93.99C113.947 93.99 113.04 93.79 112.227 93.39C111.413 92.99 110.713 92.45 110.127 91.77C109.54 91.0766 109.087 90.3033 108.767 89.45C108.447 88.5833 108.287 87.6966 108.287 86.79C108.287 85.8433 108.453 84.9433 108.787 84.09C109.12 83.2233 109.587 82.4566 110.187 81.79C110.8 81.11 111.513 80.5766 112.327 80.19C113.14 79.79 114.02 79.59 114.967 79.59C115.967 79.59 116.873 79.7966 117.687 80.21C118.5 80.6233 119.193 81.1766 119.767 81.87C120.353 82.5633 120.807 83.3366 121.127 84.19C121.447 85.0433 121.607 85.9166 121.607 86.81C121.607 87.7566 121.44 88.6633 121.107 89.53C120.773 90.3833 120.307 91.15 119.707 91.83C119.107 92.4966 118.4 93.0233 117.587 93.41C116.773 93.7966 115.893 93.99 114.947 93.99ZM109.687 86.79C109.687 87.5633 109.813 88.31 110.067 89.03C110.32 89.7366 110.68 90.37 111.147 90.93C111.613 91.4766 112.167 91.9166 112.807 92.25C113.46 92.57 114.173 92.73 114.947 92.73C115.76 92.73 116.487 92.5633 117.127 92.23C117.78 91.8833 118.333 91.43 118.787 90.87C119.253 90.2966 119.607 89.6566 119.847 88.95C120.087 88.2433 120.207 87.5233 120.207 86.79C120.207 86.0166 120.08 85.2766 119.827 84.57C119.573 83.8633 119.207 83.23 118.727 82.67C118.26 82.11 117.707 81.67 117.067 81.35C116.427 81.03 115.72 80.87 114.947 80.87C114.147 80.87 113.42 81.0366 112.767 81.37C112.127 81.7033 111.573 82.1566 111.107 82.73C110.653 83.29 110.3 83.9233 110.047 84.63C109.807 85.3366 109.687 86.0566 109.687 86.79Z" fill="white"/>
</svg>
